<?xml version="1.0" encoding="UTF-8" standalone="no"?><!-- Generator: Gravit.io --><svg xmlns="http://www.w3.org/2000/svg" xmlns:xlink="http://www.w3.org/1999/xlink" style="isolation:isolate" viewBox="0 0 760 1064" width="760pt" height="1064pt"><defs><clipPath id="_clipPath_tqmcen3IXw0EbYGT39dji6sCRdU6BUdc"><rect width="760" height="1064"/></clipPath></defs><g clip-path="url(#_clipPath_tqmcen3IXw0EbYGT39dji6sCRdU6BUdc)"><g><g><path d=" M 212.377 740.775 L 207.056 750.807 L 207.056 784.567 L 189.783 784.567 L 189.783 674.737 L 207.056 674.737 L 207.056 722.542 L 229.65 674.737 L 246.922 674.737 L 222.845 723.677 L 246.922 784.567 L 229.213 784.567 L 212.377 740.775 Z " fill="rgb(255,255,255)"/><path d=" M 254.773 674.737 L 272.046 674.737 L 272.046 784.567 L 254.773 784.567 L 254.773 674.737 Z " fill="rgb(255,255,255)"/><path d=" M 279.636 674.737 L 333.024 674.737 L 333.024 690.44 L 314.966 690.44 L 314.966 784.567 L 297.693 784.567 L 297.693 690.44 L 279.636 690.44 L 279.636 674.737 L 279.636 674.737 Z " fill="rgb(255,255,255)"/><path d=" M 335.554 674.737 L 388.942 674.737 L 388.942 690.44 L 370.884 690.44 L 370.884 784.567 L 353.611 784.567 L 353.611 690.44 L 335.554 690.44 L 335.554 674.737 Z " fill="rgb(255,255,255)"/><path d=" M 413.717 721.059 L 437.445 721.059 L 437.445 736.762 L 413.717 736.762 L 413.717 768.952 L 443.551 768.952 L 443.551 784.654 L 396.444 784.654 L 396.444 674.737 L 443.551 674.737 L 443.551 690.44 L 413.717 690.44 L 413.717 721.059 Z " fill="rgb(255,255,255)"/><path d=" M 469.722 705.008 L 469.722 784.567 L 454.194 784.567 L 454.194 674.737 L 475.915 674.737 L 493.624 740.426 L 493.624 674.737 L 508.978 674.737 L 508.978 784.567 L 491.269 784.567 L 469.722 705.008 Z " fill="rgb(255,255,255)"/><path d=" M 544.57 673.516 C 561.406 673.516 570.043 683.548 570.043 701.083 L 570.043 704.572 L 553.729 704.572 L 553.729 700.036 C 553.729 692.185 550.589 689.219 545.093 689.219 C 539.597 689.219 536.457 692.185 536.457 700.036 C 536.457 722.63 570.217 726.817 570.217 758.222 C 570.217 775.756 561.406 785.788 544.483 785.788 C 527.559 785.788 518.748 775.756 518.748 758.222 L 518.748 751.505 L 535.061 751.505 L 535.061 759.356 C 535.061 767.207 538.551 769.999 544.046 769.999 C 549.542 769.999 553.032 767.207 553.032 759.356 C 553.032 736.762 519.271 732.575 519.271 701.17 C 519.184 683.548 527.821 673.516 544.57 673.516 Z " fill="rgb(255,255,255)"/></g><g><linearGradient id="_lgradient_33" x1="0.5004218446229807" y1="0.9997477046430303" x2="0.5004218446229808" y2="-0.003570527516582267" gradientTransform="matrix(14.295,0,0,24.432,159.874,571.224)" gradientUnits="userSpaceOnUse"><stop offset="0%" stop-opacity="1" style="stop-color:rgb(237,28,36)"/><stop offset="100%" stop-opacity="1" style="stop-color:rgb(252,238,33)"/></linearGradient><path d=" M 168.772 595.65 C 167.202 595.825 167.028 592.248 165.632 590.94 C 164.062 589.369 161.881 589.457 159.874 589.195 C 163.625 587.014 163.8 581.693 165.632 578.116 C 165.632 579.861 164.847 581.693 165.632 583.263 C 167.813 580.995 170.255 574.278 170.343 571.224 C 170.343 572.533 168.947 578.029 170.517 578.378 C 172.436 578.814 173.657 572.62 174.094 571.486 C 174.443 575.935 173.483 580.646 173.134 584.746 C 172.785 586.927 172.523 588.846 171.564 590.765 C 171.564 591.376 169.994 594.255 170.604 593.295" fill="url(#_lgradient_33)"/><linearGradient id="_lgradient_34" x1="0.5012680478308411" y1="1.3283481217185296" x2="0.5012680478308412" y2="0.3248900978816236" gradientTransform="matrix(17.491,0,0,21.212,595.135,566.426)" gradientUnits="userSpaceOnUse"><stop offset="0%" stop-opacity="1" style="stop-color:rgb(237,28,36)"/><stop offset="100%" stop-opacity="1" style="stop-color:rgb(252,238,33)"/></linearGradient><path d=" M 612.016 585.793 C 610.358 588.759 608.439 587.101 605.735 587.276 C 604.426 587.363 603.118 587.712 601.722 587.625 C 600.065 587.45 598.145 586.839 597.099 585.444 C 596.052 584.135 595.441 582.216 595.179 580.646 C 594.918 578.727 595.877 577.767 596.401 576.11 C 596.837 574.714 597.535 573.492 598.058 571.922 C 597.884 573.056 595.965 578.29 598.058 577.767 C 599.454 577.505 599.89 573.754 600.152 572.62 C 600.588 571.399 601.024 569.392 602.507 568.869 C 601.286 571.922 599.977 575.237 599.89 578.552 C 599.89 579.773 600.326 581.431 601.722 579.948 C 602.594 578.988 602.856 577.767 603.641 576.72 C 603.38 577.244 602.682 578.814 603.205 579.512 C 604.077 580.471 604.863 578.552 605.037 577.854 C 605.56 575.761 605.037 572.446 604.077 570.526 C 604.775 572.62 605.735 574.452 605.997 576.633 C 606.258 578.29 605.299 579.686 605.473 581.256 C 607.043 581.256 607.043 577.941 607.131 576.807 C 607.392 574.714 608.003 572.882 608.701 570.875 C 608.439 571.748 608.177 573.056 608.439 573.754 C 610.097 572.62 609.573 568.084 609.573 566.426 C 609.399 568.607 610.446 571.137 610.795 573.492 C 610.969 574.452 611.231 575.586 610.969 576.546 C 610.795 577.244 610.271 577.941 610.271 578.727 C 611.405 577.505 611.405 575.15 612.627 574.103 C 612.103 576.72 612.365 579.424 612.452 582.042 C 612.539 583.263 612.714 584.571 612.016 585.793 Z " fill="url(#_lgradient_34)"/><linearGradient id="_lgradient_35" x1="0.5004096213794114" y1="0.9970014992503748" x2="0.5004096213794115" y2="-0.0014992503748123553" gradientTransform="matrix(12.105,0,0,58.186,623.842,532.317)" gradientUnits="userSpaceOnUse"><stop offset="0%" stop-opacity="1" style="stop-color:rgb(237,28,36)"/><stop offset="100%" stop-opacity="1" style="stop-color:rgb(252,238,33)"/></linearGradient><path d=" M 631.208 582.216 C 631.208 582.129 631.208 582.129 631.208 582.216 C 631.906 580.646 632.516 578.988 632.865 577.331 C 633.214 575.935 633.737 574.714 634.174 573.318 C 633.912 573.754 632.691 575.673 632.167 575.761 C 631.557 575.848 631.993 574.539 631.993 574.016 C 631.993 572.62 631.731 571.224 632.254 569.829 C 632.865 568.258 634.435 567.299 634.872 565.554 C 635.133 564.245 634.61 563.024 634.784 561.716 C 635.046 562.414 634.872 564.507 633.65 564.158 C 631.993 563.722 634.086 560.058 634.435 559.273 C 635.395 557.005 636.267 554.213 635.831 551.771 C 635.482 550.201 634.435 548.63 634.348 547.06 C 634.959 549.067 635.395 552.73 634.174 554.65 C 633.65 555.435 633.214 555.522 633.214 554.475 C 633.214 553.777 633.563 552.818 633.912 552.207 C 632.691 552.905 632.429 554.301 632.167 555.609 C 631.993 556.482 631.993 557.528 631.295 558.226 C 630.684 558.837 629.986 559.273 629.376 559.884 C 629.027 558.662 629.027 557.703 629.027 556.482 C 629.027 556.133 629.376 553.952 629.376 555.26 C 629.376 554.213 629.463 553.254 629.812 552.294 C 630.161 551.422 630.074 550.724 630.248 549.764 C 630.423 548.805 631.033 547.932 631.295 546.973 C 631.557 546.013 631.469 544.966 631.469 543.92 C 631.469 542.873 631.906 541.564 631.818 540.605 C 631.469 541.303 630.946 543.658 630.161 543.658 C 629.899 543.047 630.161 542 630.161 541.39 C 630.161 540.605 630.161 539.994 630.335 539.296 C 630.859 536.941 631.208 534.498 632.342 532.317 C 631.382 533.015 630.684 534.498 630.335 535.632 C 630.074 536.505 629.986 538.162 629.027 538.685 C 629.027 537.9 629.288 537.028 629.463 536.243 C 629.637 535.458 630.161 534.411 629.986 533.626 C 629.201 535.109 629.288 537.202 628.067 538.424 C 627.195 539.383 626.759 538.249 626.933 537.377 C 627.108 536.417 627.457 535.545 627.718 534.673 C 627.108 535.632 626.41 536.592 625.974 537.726 C 625.712 538.337 625.712 539.034 625.537 539.645 C 625.276 540.343 624.927 540.43 624.578 540.866 C 623.793 541.826 623.793 543.571 623.88 544.879 C 624.054 547.758 625.101 550.55 625.45 553.428 C 626.061 558.837 625.537 564.507 625.886 570.003 C 626.148 574.016 627.195 577.854 627.369 581.78 C 627.457 583.263 627.457 584.746 627.02 586.142 C 626.584 587.537 626.497 589.108 626.061 590.503 C 627.893 587.625 629.899 585.182 631.208 582.216 Z " fill="url(#_lgradient_35)"/><linearGradient id="_lgradient_36" x1="0.23952095808382978" y1="0.249315068493151" x2="0.67265469061876" y2="0.7483170645011341" gradientTransform="matrix(43.705,0,0,31.841,584.537,472.474)" gradientUnits="userSpaceOnUse"><stop offset="0%" stop-opacity="1" style="stop-color:rgb(237,28,36)"/><stop offset="100%" stop-opacity="1" style="stop-color:rgb(252,238,33)"/></linearGradient><path d=" M 625.014 496.289 C 625.101 497.249 625.363 498.208 625.276 499.168 C 620.478 496.812 615.941 496.202 610.62 496.376 C 604.775 496.551 597.971 496.9 592.301 498.819 C 589.422 499.778 587.154 501.785 584.537 502.832 C 586.369 499.691 587.939 496.115 590.033 493.149 C 591.69 490.793 594.045 489.136 595.179 486.257 C 594.569 487.827 593.609 490.619 593.609 492.189 C 593.958 491.84 594.569 491.229 595.179 490.968 C 595.79 490.357 596.139 489.746 596.75 489.048 C 597.36 488.7 597.971 489.397 598.669 488.7 C 601.46 486.78 602.42 481.808 604.339 479.016 C 603.728 482.157 603.118 485.297 602.42 488.438 C 601.809 492.538 601.809 491.229 605.211 490.008 C 605.211 494.108 609.312 488.787 609.573 487.827 C 611.144 484.687 612.103 481.546 614.284 479.104 C 614.284 481.023 613.499 482.942 612.975 484.774 C 612.714 485.559 611.667 488.612 613.673 488.002 C 615.331 487.478 615.331 485.123 615.593 483.814 C 615.941 481.808 617.948 480.587 618.035 478.58 C 618.122 477.359 618.122 476.05 618.21 474.829 C 618.21 474.044 618.297 473.172 618.035 472.474 C 617.948 473.172 618.384 474.044 618.646 474.742 C 618.907 475.614 619.344 476.574 619.431 477.533 C 619.518 478.406 619.518 479.54 619.256 480.325 C 618.995 481.285 618.471 482.157 618.035 483.116 C 617.424 484.599 617.163 486.344 617.25 487.914 C 617.337 489.397 617.773 492.712 619.518 493.149 C 620.303 493.41 620.914 492.8 621.35 492.189 C 621.961 491.229 622.397 490.183 623.182 489.31 C 622.833 490.88 621.961 492.712 622.571 494.021 C 624.752 492.451 626.671 489.048 628.242 486.78 C 627.718 489.485 625.625 491.84 625.188 494.544 C 624.578 498.121 625.188 500.738 623.531 504.315" fill="url(#_lgradient_36)"/><linearGradient id="_lgradient_37" x1="0.5100461558926455" y1="1.002688172043011" x2="0.5100461558926456" y2="0.00268817204300964" gradientTransform="matrix(10.683,0,0,32.452,525.787,567.822)" gradientUnits="userSpaceOnUse"><stop offset="0%" stop-opacity="1" style="stop-color:rgb(237,28,36)"/><stop offset="100%" stop-opacity="1" style="stop-color:rgb(252,238,33)"/></linearGradient><path d=" M 535.074 591.201 C 535.336 588.933 534.812 586.403 535.074 584.135 C 535.336 582.478 535.947 580.733 536.47 579.076 C 534.464 581.344 534.202 584.397 531.672 586.403 C 532.195 583.612 533.678 581.344 534.464 578.814 C 534.987 576.284 535.336 573.754 536.121 571.486 C 535.249 573.492 534.464 577.68 532.195 579.337 C 531.934 577.68 533.329 574.801 533.853 573.144 C 534.115 571.486 534.725 569.48 534.987 567.822 C 534.987 571.224 532.719 574.539 530.8 577.069 C 527.921 580.733 527.485 581.518 526.874 586.229 C 526.351 590.852 524.868 595.825 526.612 600.274 C 526.438 599.838 530.538 597.482 531.061 597.046 C 532.98 595.65 534.551 593.557 535.074 591.201 Z " fill="url(#_lgradient_37)"/><linearGradient id="_lgradient_38" x1="0.4942420174982374" y1="1.0000000000000002" x2="0.49424201749823743" y2="0.0026041666666667407" gradientTransform="matrix(8.624,0,0,33.498,537.529,491.927)" gradientUnits="userSpaceOnUse"><stop offset="0%" stop-opacity="1" style="stop-color:rgb(237,28,36)"/><stop offset="100%" stop-opacity="1" style="stop-color:rgb(252,238,33)"/></linearGradient><path d=" M 541.879 525.426 C 539 523.419 539.261 516.179 537.953 512.951 C 536.295 508.851 539.959 504.664 541.006 500.651 C 541.006 500.913 541.53 501.523 541.53 501.785 C 543.536 498.993 543.187 494.719 544.932 491.927 C 546.066 495.591 544.408 500.389 543.536 503.704 C 542.664 507.019 543.013 511.032 541.879 514.085 C 542.14 513.213 543.013 512.079 543.885 511.555 C 543.885 513.823 542.489 516.353 542.751 518.621 C 543.885 517.749 545.019 515.83 546.153 514.696 C 546.153 518.098 543.362 521.151 543.1 524.553 C 543.362 524.553 543.362 524.292 543.623 524.292" fill="url(#_lgradient_38)"/><linearGradient id="_lgradient_39" x1="0.49981307051672985" y1="1.0027133776153883" x2="0.4998130705167299" y2="2.220446049250313e-16" gradientTransform="matrix(34.707,0,0,25.23,428.224,472.648)" gradientUnits="userSpaceOnUse"><stop offset="0%" stop-opacity="1" style="stop-color:rgb(237,28,36)"/><stop offset="100%" stop-opacity="1" style="stop-color:rgb(252,238,33)"/></linearGradient><path d=" M 455.166 497.598 C 451.154 497.685 447.315 496.464 443.39 496.202 C 438.766 495.853 434.841 497.51 430.479 497.859 C 426.902 498.121 428.298 495.591 429.781 493.759 C 431.526 491.491 432.834 489.834 434.143 487.129 C 434.143 487.653 434.23 491.491 433.881 491.753 C 436.149 490.357 438.068 486.431 439.813 484.425 C 442.605 481.023 445.134 476.574 446.53 472.648 C 446.007 474.306 437.807 495.417 446.53 489.485 C 446.53 492.276 447.402 491.491 449.322 490.357 C 452.637 488.438 451.328 491.491 453.858 490.706 C 456.388 489.921 456.213 484.687 458.22 483.116 C 457.871 484.861 454.905 491.491 458.481 489.659 C 460.226 488.787 461.796 486.257 462.93 484.687 C 461.273 486.606 460.837 489.746 460.837 492.189 C 460.837 494.195 461.098 497.685 458.22 497.685 C 458.307 497.51 458.307 497.336 458.307 497.161" fill="url(#_lgradient_39)"/><linearGradient id="_lgradient_40" x1="0.40320531463822107" y1="0.5078023147884488" x2="1.4458386087317932" y2="-0.025867807306838575" gradientTransform="matrix(15.787,0,0,84.521,492.942,482.68)" gradientUnits="userSpaceOnUse"><stop offset="0%" stop-opacity="1" style="stop-color:rgb(237,28,36)"/><stop offset="100%" stop-opacity="1" style="stop-color:rgb(252,238,33)"/></linearGradient><path d=" M 503.32 556.045 C 502.71 558.662 502.971 564.333 500.965 566.252 C 498.348 568.695 496.865 565.903 496.603 563.722 C 495.556 554.999 496.603 546.013 495.644 537.202 C 494.684 528.915 494.073 520.541 493.986 512.166 C 493.986 506.932 491.369 499.255 494.422 494.457 C 495.556 492.712 496.952 491.578 497.825 489.485 C 498.697 487.478 499.22 485.385 500.18 483.465 C 499.569 485.385 498.959 488.525 499.22 490.531 C 501.227 488.002 501.488 485.472 502.535 482.68 C 504.978 487.391 503.32 492.451 504.106 497.423 C 504.367 499.342 504.803 500.738 504.629 502.744 C 504.28 505.71 504.978 507.63 505.24 510.508 C 505.589 514.521 503.669 518.709 502.971 522.634 C 502.448 525.687 501.837 529.09 500.965 531.881 C 501.488 528.828 502.971 525.164 504.367 522.285 C 505.501 519.755 506.374 517.749 506.635 514.957 C 506.897 513.562 506.635 510.159 508.031 509.374 C 509.427 512.166 508.031 516.44 507.508 519.232 C 506.984 523.158 505.85 526.821 504.716 530.747 C 503.844 534.149 503.582 538.598 501.663 542 C 501.663 539.994 502.535 538.075 503.059 536.417 C 503.32 539.209 501.925 542.349 501.663 545.141 C 503.32 544.618 504.193 542.873 505.065 541.739 C 505.589 544.792 503.059 547.932 502.797 550.986 C 506.461 548.979 507.857 539.732 508.729 536.068 C 506.112 542.349 504.978 549.59 503.32 556.045 Z " fill="url(#_lgradient_40)"/><linearGradient id="_lgradient_41" x1="0.4999099960310307" y1="1.2994269029641874" x2="0.49990999603103076" y2="0.2937401811298379" gradientTransform="matrix(26.35,0,0,17.522,318.817,570.788)" gradientUnits="userSpaceOnUse"><stop offset="0%" stop-opacity="1" style="stop-color:rgb(237,28,36)"/><stop offset="100%" stop-opacity="1" style="stop-color:rgb(252,238,33)"/></linearGradient><path d=" M 336.177 582.827 C 338.009 584.222 342.545 585.531 343.679 585.444 C 341.673 585.618 340.277 586.578 338.533 587.276 C 336.701 587.974 334.694 587.799 332.775 588.061 C 328.152 588.584 323.354 588.148 318.817 587.974 C 320.562 585.008 324.488 583.437 325.709 580.297 C 325.534 581.082 325.36 583.873 324.924 584.397 C 325.971 583.176 327.628 582.129 328.413 580.907 C 329.111 579.773 328.937 578.029 329.024 576.72 C 329.286 574.365 330.245 572.707 331.554 570.788 C 330.769 572.533 329.809 574.539 329.722 576.546 C 329.722 577.505 330.158 578.29 330.071 579.163 C 329.983 580.907 329.111 582.652 329.024 584.397 C 331.03 583.263 332.426 581.344 334.084 580.21 C 333.386 580.646 333.211 582.478 333.298 583.263 C 335.828 581.256 336.177 585.705 338.445 583.699 C 340.19 582.129 340.626 578.378 341.15 576.197 C 341.237 578.552 340.801 581.954 340.103 584.571 C 341.848 583.699 342.633 580.122 343.243 578.465 C 344.116 576.11 345.25 573.405 345.162 570.875 C 345.162 574.452 344.814 577.854 344.465 581.431 C 344.29 583.088 343.505 585.88 344.377 587.45 C 343.418 587.886 341.935 588.235 340.888 588.148 C 340.801 587.886 340.975 587.712 341.062 587.45" fill="url(#_lgradient_41)"/><linearGradient id="_lgradient_42" x1="0.4983424009757549" y1="0.9993128270763347" x2="0.49834240097575494" y2="4.440892098500626e-16" gradientTransform="matrix(15.474,0,0,37.799,374.177,552.73)" gradientUnits="userSpaceOnUse"><stop offset="0%" stop-opacity="1" style="stop-color:rgb(237,28,36)"/><stop offset="100%" stop-opacity="1" style="stop-color:rgb(252,238,33)"/></linearGradient><path d=" M 389.042 583.088 C 388.606 586.403 388.082 590.242 384.331 590.503 C 380.667 590.852 376.742 587.625 375.259 584.484 C 373.34 580.471 374.386 574.888 375.259 570.701 C 375.869 567.997 376.829 562.326 378.923 560.32 C 378.05 563.111 376.393 568.433 377.265 571.312 C 381.452 571.573 383.459 556.133 383.982 552.73 C 383.459 558.052 383.11 563.722 382.587 569.305 C 382.063 572.969 380.057 577.767 380.318 581.082 C 381.452 579.948 382.325 578.029 383.11 576.546 C 383.633 578.203 383.11 580.471 383.11 582.129 C 386.774 579.076 387.036 573.405 389.304 569.48 C 389.914 573.754 389.653 578.552 389.042 583.088 Z " fill="url(#_lgradient_42)"/><linearGradient id="_lgradient_43" x1="0.5014970059880235" y1="0.9994770112631314" x2="0.5014970059880236" y2="0.0017473374322783952" gradientTransform="matrix(58.273,0,0,49.925,122.537,453.456)" gradientUnits="userSpaceOnUse"><stop offset="0%" stop-opacity="1" style="stop-color:rgb(237,28,36)"/><stop offset="100%" stop-opacity="1" style="stop-color:rgb(252,238,33)"/></linearGradient><path d=" M 180.811 473.433 C 179.415 475.44 177.932 477.533 176.536 479.54 C 174.879 481.808 172.698 483.989 171.826 486.693 C 171.215 488.612 171.651 490.619 170.866 492.538 C 169.208 496.9 165.981 501.261 161.445 502.832 C 156.298 504.489 150.278 501.959 145.306 501 C 137.716 499.43 130.127 499.778 122.537 498.644 C 127.074 493.41 135.187 492.887 139.81 487.478 C 144.259 482.331 144.608 474.218 149.58 469.246 C 149.58 475.178 143.648 479.627 143.648 485.559 C 143.648 485.385 148.708 482.855 149.232 482.506 C 150.889 481.459 152.372 480.325 153.681 478.842 C 156.385 475.876 158.304 472.387 160.485 469.072 C 163.015 465.32 166.068 461.918 169.383 458.778 C 171.302 456.946 173.745 454.678 176.1 453.456 C 170.255 459.912 163.276 465.669 161.881 474.829 C 161.532 476.923 160.834 480.412 164.062 478.842 C 165.894 477.97 167.464 476.05 167.202 473.957 C 166.679 475.091 168.162 477.446 168.249 478.842 C 168.423 481.197 166.417 482.68 165.981 484.774 C 165.196 488.002 168.511 485.734 169.645 484.774 C 173.745 481.285 176.449 476.487 180.811 473.433 Z " fill="url(#_lgradient_43)"/><linearGradient id="_lgradient_44" x1="0.4982578397212549" y1="0.9999999999999998" x2="0.498257839721255" y2="-0.0017182130584192379" gradientTransform="matrix(25.037,0,0,50.771,195.815,467.414)" gradientUnits="userSpaceOnUse"><stop offset="0%" stop-opacity="1" style="stop-color:rgb(237,28,36)"/><stop offset="100%" stop-opacity="1" style="stop-color:rgb(252,238,33)"/></linearGradient><path d=" M 195.815 497.336 C 199.392 495.417 201.137 490.095 202.794 486.519 C 205.062 482.593 208.377 480.15 211.169 476.836 C 208.901 480.15 203.405 487.653 204.801 491.84 C 208.116 489.31 210.907 484.599 212.826 481.285 C 215.618 476.836 217.275 470.991 220.852 467.414 C 219.194 469.072 218.584 472.387 217.799 474.655 C 216.665 478.231 215.879 481.633 215.269 485.472 C 214.396 491.317 211.692 493.846 208.901 498.208 C 211.692 497.685 213.873 492.887 214.484 490.444 C 213.088 492.625 213.088 496.027 211.954 498.47 C 210.82 501.523 208.901 504.576 207.243 507.368 C 205.324 510.683 203.666 516.004 200.526 518.185 C 199.392 516.789 199.13 513.474 198.607 511.555 C 197.734 508.764 196.077 505.449 195.815 502.657" fill="url(#_lgradient_44)"/><linearGradient id="_lgradient_45" x1="0.49956381475748834" y1="0.9993158320161868" x2="0.4995638147574884" y2="0" gradientTransform="matrix(15.541,0,0,21.3,144.521,519.581)" gradientUnits="userSpaceOnUse"><stop offset="0%" stop-opacity="1" style="stop-color:rgb(237,28,36)"/><stop offset="100%" stop-opacity="1" style="stop-color:rgb(252,238,33)"/></linearGradient><path d=" M 159.351 519.581 C 159.264 519.755 160.049 521.587 160.049 522.024 C 160.136 523.332 159.787 524.815 159.438 526.036 C 158.74 528.304 156.908 529.962 156.123 532.143 C 155.338 534.236 156.734 536.854 155.6 538.685 C 154.117 541.39 146.963 541.041 144.521 540.517 C 145.131 538.424 147.487 537.202 148.534 535.283 C 149.144 534.236 151.587 530.834 151.761 529.875 C 151.5 531.532 150.104 532.666 150.104 534.585 C 151.761 533.713 153.681 531.009 154.815 529.264 C 157.083 526.211 157.955 523.158 159.351 519.581 Z " fill="url(#_lgradient_45)"/><linearGradient id="_lgradient_46" x1="0.501352445304752" y1="0.9999999999999997" x2="0.5013524453047521" y2="0.0018050541516241303" gradientTransform="matrix(39.846,0,0,48.328,263.51,478.667)" gradientUnits="userSpaceOnUse"><stop offset="0%" stop-opacity="1" style="stop-color:rgb(237,28,36)"/><stop offset="100%" stop-opacity="1" style="stop-color:rgb(252,238,33)"/></linearGradient><path d=" M 287.325 505.362 C 284.621 501.523 282.004 497.685 276.944 496.9 C 275.112 496.638 264.382 494.893 263.51 496.115 C 266.476 492.189 275.374 489.31 275.374 483.378 C 275.112 485.559 273.978 487.827 273.717 490.008 C 275.112 489.397 277.032 488.263 277.904 486.955 C 278.427 486.17 278.689 485.297 279.212 484.512 C 279.823 483.553 280.695 482.768 281.481 482.07 C 282.702 481.023 284.01 480.15 285.232 479.278 C 284.359 479.889 283.313 480.761 282.876 481.721 C 282.615 482.244 281.83 483.814 282.789 483.989 C 283.836 484.163 284.708 482.593 285.319 481.982 C 286.104 481.197 286.802 480.063 286.889 478.929 C 286.889 479.54 287.151 480.238 287.064 480.936 C 286.976 481.546 286.976 482.331 286.715 482.855 C 285.842 484.512 284.185 485.472 283.574 487.304 C 283.313 488.263 283.225 489.136 283.836 490.008 C 284.098 490.444 284.796 490.88 285.319 490.88 C 285.842 490.88 286.017 490.444 286.279 490.095 C 287.064 489.136 287.849 488.263 288.547 487.217 C 289.681 485.646 290.553 483.64 291.949 482.244 C 291.425 484.163 286.715 492.8 291.687 490.27 C 294.915 488.612 295.264 481.721 296.485 478.667 C 295.351 484.425 295.525 491.055 295.264 496.9 C 295.177 498.47 293.955 499.604 296.398 499.43 C 298.055 499.342 300.062 496.376 300.498 495.068 C 299.364 496.987 297.27 501.174 297.532 503.617 C 301.196 501.261 303.813 496.115 303.289 491.753 C 301.981 494.108 302.243 498.644 301.894 501.523 C 301.37 505.187 300.934 509.025 299.974 512.602 C 298.84 516.615 297.881 524.553 294.304 526.996 C 293.257 523.943 293.345 520.279 292.559 517.051 C 291.6 512.777 289.855 509.025 287.325 505.362 Z " fill="url(#_lgradient_46)"/><linearGradient id="_lgradient_47" x1="0.49840828595923625" y1="1" x2="0.4984082859592363" y2="0" gradientTransform="matrix(6.957,0,0,13.87,210.406,458.952)" gradientUnits="userSpaceOnUse"><stop offset="0%" stop-opacity="1" style="stop-color:rgb(237,28,36)"/><stop offset="100%" stop-opacity="1" style="stop-color:rgb(252,238,33)"/></linearGradient><path d=" M 210.645 472.823 C 210.035 470.031 210.645 467.065 211.867 464.535 C 212.477 463.227 213.262 462.005 214.309 461.046 C 215.182 460.174 216.403 459.65 217.362 458.952 C 214.745 461.482 214.309 463.401 213.262 466.716 C 212.652 468.723 210.645 470.642 210.645 472.823 Z " fill="url(#_lgradient_47)"/><linearGradient id="_lgradient_48" x1="0.5000000000000009" y1="0.6332480818414322" x2="0.5000000000000009" y2="-0.07058823529411762" gradientTransform="matrix(46.758,0,0,108.87,122.625,492.625)" gradientUnits="userSpaceOnUse"><stop offset="0%" stop-opacity="1" style="stop-color:rgb(237,28,36)"/><stop offset="100%" stop-opacity="1" style="stop-color:rgb(252,238,33)"/></linearGradient><path d=" M 122.625 601.495 L 169.383 601.495 L 169.383 585.967 L 139.287 585.967 L 139.287 553.69 L 162.666 553.69 L 162.666 538.162 L 139.287 538.162 L 139.287 508.153 L 169.383 508.153 L 169.383 492.625 L 122.625 492.625 L 122.625 601.495 Z " fill="url(#_lgradient_48)"/><linearGradient id="_lgradient_49" x1="0.500699300699301" y1="0.3790569503980404" x2="0.500699300699301" y2="-0.04225352112676056" gradientTransform="matrix(62.373,0,0,108.87,175.838,492.625)" gradientUnits="userSpaceOnUse"><stop offset="0%" stop-opacity="1" style="stop-color:rgb(237,28,36)"/><stop offset="100%" stop-opacity="1" style="stop-color:rgb(252,238,33)"/></linearGradient><path d=" M 236.99 492.625 L 221.114 492.625 L 207.854 532.753 L 194.856 492.625 L 177.147 492.625 L 195.03 545.49 L 175.838 601.495 L 191.89 601.495 L 206.109 558.401 L 220.154 601.495 L 238.212 601.495 L 219.02 545.49 L 236.99 492.625 Z " fill="url(#_lgradient_49)"/><linearGradient id="_lgradient_50" x1="0.4999999999999982" y1="0.9919871794871794" x2="0.4999999999999983" y2="-0.11057692307692302" gradientTransform="matrix(50.073,0,0,108.87,247.284,492.625)" gradientUnits="userSpaceOnUse"><stop offset="0%" stop-opacity="1" style="stop-color:rgb(237,28,36)"/><stop offset="100%" stop-opacity="1" style="stop-color:rgb(252,238,33)"/></linearGradient><path d=" M 272.059 492.625 L 247.284 492.625 L 247.284 601.495 L 263.946 601.495 L 263.946 560.407 L 272.059 560.407 C 289.245 560.407 297.357 550.811 297.357 533.364 L 297.357 519.232 C 297.357 501.785 289.157 492.625 272.059 492.625 Z  M 280.608 534.498 C 280.608 542.262 277.468 544.879 272.059 544.879 L 263.946 544.879 L 263.946 508.24 L 272.059 508.24 C 277.555 508.24 280.608 510.421 280.608 518.185 L 280.608 534.498 Z " fill="url(#_lgradient_50)"/><linearGradient id="_lgradient_51" x1="0.5009560229445515" y1="0.2912255939778875" x2="0.5009560229445515" y2="-0.032462949894142556" gradientTransform="matrix(45.624,0,0,108.87,305.121,492.625)" gradientUnits="userSpaceOnUse"><stop offset="0%" stop-opacity="1" style="stop-color:rgb(237,28,36)"/><stop offset="100%" stop-opacity="1" style="stop-color:rgb(252,238,33)"/></linearGradient><path d=" M 322.917 492.625 L 305.121 492.625 L 305.121 601.495 L 350.746 601.495 L 350.746 585.967 L 322.917 585.967 L 322.917 492.625 Z " fill="url(#_lgradient_51)"/><linearGradient id="_lgradient_52" x1="0.5" y1="0.9812059514487078" x2="0.5000000000000001" y2="-0.09631949882537205" gradientTransform="matrix(51.12,0,0,111.4,357.463,491.055)" gradientUnits="userSpaceOnUse"><stop offset="0%" stop-opacity="1" style="stop-color:rgb(237,28,36)"/><stop offset="100%" stop-opacity="1" style="stop-color:rgb(252,238,33)"/></linearGradient><path d=" M 383.023 491.055 C 366.186 491.055 357.463 501 357.463 518.447 L 357.463 575.063 C 357.463 592.51 366.186 602.455 383.023 602.455 C 399.859 602.455 408.583 592.51 408.583 575.063 L 408.583 518.447 C 408.583 501 399.859 491.055 383.023 491.055 Z  M 391.921 576.197 C 391.921 583.961 388.431 586.927 383.023 586.927 C 377.527 586.927 374.125 583.961 374.125 576.197 L 374.125 517.313 C 374.125 509.549 377.614 506.583 383.023 506.583 C 388.519 506.583 391.921 509.549 391.921 517.313 L 391.921 576.197 Z " fill="url(#_lgradient_52)"/><linearGradient id="_lgradient_53" x1="0.4991843393148443" y1="0.9919871794871794" x2="0.49918433931484435" y2="-0.11057692307692302" gradientTransform="matrix(53.475,0,0,108.87,419.749,492.625)" gradientUnits="userSpaceOnUse"><stop offset="0%" stop-opacity="1" style="stop-color:rgb(237,28,36)"/><stop offset="100%" stop-opacity="1" style="stop-color:rgb(252,238,33)"/></linearGradient><path d=" M 447.315 492.625 L 419.749 492.625 L 419.749 601.495 L 447.315 601.495 C 464.501 601.495 473.224 591.725 473.224 574.278 L 473.224 519.232 C 473.137 501.785 464.413 492.625 447.315 492.625 Z  M 455.341 575.063 C 455.341 582.827 452.375 585.88 446.966 585.88 L 437.545 585.88 L 437.545 508.153 L 446.966 508.153 C 452.462 508.153 455.341 510.683 455.341 518.447 L 455.341 575.063 Z " fill="url(#_lgradient_53)"/><linearGradient id="_lgradient_54" x1="0.5026178010471227" y1="0.9919871794871795" x2="0.5026178010471228" y2="-0.11057692307692313" gradientTransform="matrix(16.662,0,0,108.87,484.303,492.625)" gradientUnits="userSpaceOnUse"><stop offset="0%" stop-opacity="1" style="stop-color:rgb(237,28,36)"/><stop offset="100%" stop-opacity="1" style="stop-color:rgb(252,238,33)"/></linearGradient><rect x="484.303" y="492.625" width="16.662" height="108.87" transform="matrix(1,0,0,1,0,0)" fill="url(#_lgradient_54)"/><linearGradient id="_lgradient_55" x1="0.4991999999999983" y1="0.17996801860735567" x2="0.4991999999999983" y2="-0.02006105538595726" gradientTransform="matrix(54.522,0,0,108.87,513.265,492.625)" gradientUnits="userSpaceOnUse"><stop offset="0%" stop-opacity="1" style="stop-color:rgb(237,28,36)"/><stop offset="100%" stop-opacity="1" style="stop-color:rgb(252,238,33)"/></linearGradient><path d=" M 552.172 557.528 L 534.725 492.625 L 513.265 492.625 L 513.265 601.495 L 528.793 601.495 L 528.793 522.285 L 549.991 601.495 L 567.787 601.495 L 567.787 492.625 L 552.172 492.625 L 552.172 557.528 Z " fill="url(#_lgradient_55)"/><linearGradient id="_lgradient_56" x1="0.5" y1="0.9812059514487077" x2="0.5000000000000001" y2="-0.09631949882537194" gradientTransform="matrix(51.12,0,0,111.4,578.954,491.055)" gradientUnits="userSpaceOnUse"><stop offset="0%" stop-opacity="1" style="stop-color:rgb(237,28,36)"/><stop offset="100%" stop-opacity="1" style="stop-color:rgb(252,238,33)"/></linearGradient><path d=" M 630.074 529.264 L 630.074 518.447 C 630.074 501 621.35 491.055 604.514 491.055 C 587.677 491.055 578.954 501 578.954 518.447 L 578.954 575.063 C 578.954 592.51 587.677 602.455 604.514 602.455 C 621.35 602.455 630.074 592.51 630.074 575.063 L 630.074 540.343 L 605.56 540.343 L 605.56 555.871 L 613.324 555.871 L 613.324 576.11 C 613.324 583.873 609.835 586.665 604.426 586.665 C 598.931 586.665 595.528 583.873 595.528 576.11 L 595.528 517.313 C 595.528 509.549 599.018 506.583 604.426 506.583 C 609.922 506.583 613.324 509.549 613.324 517.313 L 613.324 529.264 L 630.074 529.264 Z " fill="url(#_lgradient_56)"/><linearGradient id="_lgradient_57" x1="0.5211606105027613" y1="1" x2="0.5211606105027614" y2="-0.011111111111111072" gradientTransform="matrix(2.678,0,0,7.851,634.784,533.277)" gradientUnits="userSpaceOnUse"><stop offset="0%" stop-opacity="1" style="stop-color:rgb(237,28,36)"/><stop offset="100%" stop-opacity="1" style="stop-color:rgb(252,238,33)"/></linearGradient><path d=" M 637.401 537.028 C 637.052 538.773 635.308 539.471 634.784 541.128 C 634.872 539.82 635.744 538.685 636.093 537.464 C 636.442 536.156 636.529 534.585 636.18 533.277 C 637.052 534.149 637.663 535.807 637.401 537.028 Z " fill="url(#_lgradient_57)"/><linearGradient id="_lgradient_58" x1="-0.6172297952202541" y1="0.6580310880829012" x2="1.4171383034778344" y2="-0.3847962566278855" gradientTransform="matrix(4.585,0,0,16.836,508.07,471.514)" gradientUnits="userSpaceOnUse"><stop offset="0%" stop-opacity="1" style="stop-color:rgb(237,28,36)"/><stop offset="100%" stop-opacity="1" style="stop-color:rgb(252,238,33)"/></linearGradient><path d=" M 512.655 471.514 C 512.306 471.863 512.044 475.527 511.782 476.312 C 511.346 477.795 510.648 479.104 510.038 480.587 C 509.078 483.116 508.816 485.734 508.118 488.351 C 507.944 485.385 508.206 480.499 509.427 477.795 C 510.212 476.05 511.346 472.823 512.655 471.514 Z " fill="url(#_lgradient_58)"/><linearGradient id="_lgradient_59" x1="0.5023785686577185" y1="0.9999999999999998" x2="0.5023785686577186" y2="2.220446049250313e-16" gradientTransform="matrix(6.311,0,0,12.387,450.687,472.387)" gradientUnits="userSpaceOnUse"><stop offset="0%" stop-opacity="1" style="stop-color:rgb(237,28,36)"/><stop offset="100%" stop-opacity="1" style="stop-color:rgb(252,238,33)"/></linearGradient><path d=" M 450.805 484.774 C 449.932 480.063 454.12 475.527 456.998 472.387 C 456.3 474.567 456.213 477.184 454.992 479.191 C 453.596 481.285 450.717 481.721 450.805 484.774 Z " fill="url(#_lgradient_59)"/><linearGradient id="_lgradient_60" x1="0.4980638352756728" y1="1" x2="0.49806383527567283" y2="0.006578947368419463" gradientTransform="matrix(4.128,0,0,13.26,337.524,563.199)" gradientUnits="userSpaceOnUse"><stop offset="0%" stop-opacity="1" style="stop-color:rgb(237,28,36)"/><stop offset="100%" stop-opacity="1" style="stop-color:rgb(252,238,33)"/></linearGradient><path d=" M 340.801 569.392 C 339.928 571.399 337.137 574.016 337.747 576.458 C 337.224 573.929 337.66 571.137 338.62 568.695 C 338.969 567.735 339.492 566.775 340.016 565.903 C 340.539 565.031 341.15 564.245 341.411 563.199 C 341.76 563.46 341.673 564.158 341.499 564.507 C 341.411 564.943 341.324 565.292 341.324 565.816 C 341.324 567.037 341.324 568.346 340.801 569.392 Z " fill="url(#_lgradient_60)"/><linearGradient id="_lgradient_61" x1="0.5216992586229594" y1="1" x2="0.5216992586229595" y2="7.105427357601002e-15" gradientTransform="matrix(1.839,0,0,5.932,332.164,562.937)" gradientUnits="userSpaceOnUse"><stop offset="0%" stop-opacity="1" style="stop-color:rgb(237,28,36)"/><stop offset="100%" stop-opacity="1" style="stop-color:rgb(252,238,33)"/></linearGradient><path d=" M 332.164 568.869 C 332.339 568.084 333.822 567.735 333.996 566.339 C 334.084 565.205 333.386 563.809 332.688 562.937 C 332.601 564.943 332.688 566.95 332.164 568.869 Z " fill="url(#_lgradient_61)"/><linearGradient id="_lgradient_62" x1="0.5070431402669016" y1="1.0119047619047619" x2="0.5070431402669017" y2="0" gradientTransform="matrix(3.223,0,0,7.328,293.019,471.689)" gradientUnits="userSpaceOnUse"><stop offset="0%" stop-opacity="1" style="stop-color:rgb(237,28,36)"/><stop offset="100%" stop-opacity="1" style="stop-color:rgb(252,238,33)"/></linearGradient><path d=" M 296.136 471.689 C 296.485 471.776 295.874 472.561 295.7 472.823 C 295.351 473.695 295.351 474.567 295.002 475.44 C 294.566 476.661 292.647 477.533 293.083 479.016 C 293.083 478.231 293.17 477.621 293.432 476.836 C 293.694 476.05 293.694 475.178 293.955 474.393 C 294.304 473.259 295.002 472.125 296.223 471.776" fill="url(#_lgradient_62)"/><linearGradient id="_lgradient_63" x1="-0.0852713178294664" y1="0.2857142857142865" x2="0.7465025714409893" y2="1.266780924340983" gradientTransform="matrix(2.813,0,0,9.16,608.156,469.333)" gradientUnits="userSpaceOnUse"><stop offset="0%" stop-opacity="1" style="stop-color:rgb(237,28,36)"/><stop offset="100%" stop-opacity="1" style="stop-color:rgb(252,238,33)"/></linearGradient><path d=" M 610.707 469.857 C 610.184 471.078 610.271 472.561 610.009 473.87 C 609.835 474.655 609.224 475.265 608.963 476.05 C 608.614 476.836 608.352 477.621 608.352 478.493 C 608.09 477.533 608.09 476.312 608.352 475.353 C 608.526 474.567 608.614 473.695 608.701 472.91 C 608.963 471.427 609.922 470.38 610.969 469.333" fill="url(#_lgradient_63)"/><linearGradient id="_lgradient_64" x1="0.019605259893836546" y1="0.3030303030303023" x2="0.7269081944787555" y2="1.1282170600460368" gradientTransform="matrix(3.139,0,0,8.636,619.98,481.023)" gradientUnits="userSpaceOnUse"><stop offset="0%" stop-opacity="1" style="stop-color:rgb(237,28,36)"/><stop offset="100%" stop-opacity="1" style="stop-color:rgb(252,238,33)"/></linearGradient><path d=" M 620.478 484.774 C 621.001 485.385 620.565 486.17 620.39 486.78 C 620.129 487.74 620.303 488.7 620.565 489.572 C 620.303 488.525 621.001 487.914 621.437 487.129 C 621.786 486.519 621.873 485.123 621.699 484.425 C 621.35 483.378 620.39 485.123 620.216 485.646 C 619.693 487.042 620.216 488.263 620.129 489.659 C 620.129 489.223 620.216 488.002 620.739 487.653 C 620.827 488.089 620.827 488.525 621.001 488.961 C 621.176 488.438 621.001 487.827 621.176 487.304 C 621.35 486.693 621.873 486.082 622.222 485.559 C 622.746 484.774 622.833 483.989 622.92 483.116 C 623.008 482.419 623.182 481.721 623.095 481.023 C 623.095 481.546 622.92 481.982 622.659 482.419 C 622.31 482.855 621.699 483.291 621.437 483.814 C 621.35 484.163 621.525 484.251 621.525 484.599 C 621.525 485.036 621.176 485.297 621.176 485.734 C 620.914 485.297 620.739 485.036 620.478 484.774 C 620.478 484.687 620.565 484.774 620.565 484.774" fill="url(#_lgradient_64)"/></g><linearGradient id="_lgradient_65" x1="0.4998387735347193" y1="1.0308079205972869" x2="0.49983877353471934" y2="-0.05143887194050811" gradientTransform="matrix(148.015,0,0,128.889,305.992,278.212)" gradientUnits="userSpaceOnUse"><stop offset="0%" stop-opacity="1" style="stop-color:rgb(237,28,36)"/><stop offset="100%" stop-opacity="1" style="stop-color:rgb(252,238,33)"/></linearGradient><path d=" M 446.973 335.351 C 445.577 330.117 443.833 325.057 442.524 319.823 C 440.605 312.408 441.215 301.853 436.243 295.746 C 433.888 292.867 431.881 290.425 430.137 287.023 C 428.566 283.882 426.996 280.654 424.379 278.212 C 424.292 281.788 428.828 292.082 426.734 294.874 C 425.6 296.444 422.46 295.397 421.064 295.048 C 418.011 294.35 415.045 294.001 411.904 293.914 C 408.502 293.827 404.402 295.659 401.087 295.048 C 398.296 294.525 394.544 290.686 392.189 289.029 C 388.002 286.063 383.814 281.178 379.278 279.259 C 381.197 283.882 384.774 288.244 387.827 292.169 C 390.532 295.572 389.834 296.618 387.653 300.282 C 386.083 302.987 384.949 305.778 383.989 308.744 C 383.553 310.227 383.204 313.019 382.07 314.24 C 380.848 315.461 377.708 315.549 375.876 315.81 C 365.233 317.817 354.591 319.91 344.733 324.708 C 334.614 329.681 323.971 338.84 321.267 350.094 C 320.656 352.711 320.83 355.502 320.133 358.119 C 319.958 358.73 319.784 359.341 319.609 359.951 C 312.805 364.139 306 369.722 306 378.271 C 305.564 393.624 322.75 404.616 336.184 406.535 C 342.378 407.495 352.671 407.756 357.731 402.959 C 361.831 399.12 354.852 397.463 351.974 397.201 C 346.216 396.241 340.458 396.939 334.701 396.241 C 329.903 395.544 325.367 393.886 321.092 391.182 C 317.254 388.826 312.456 385.25 312.979 379.928 C 313.241 375.916 315.858 372.252 318.65 368.937 C 318.999 374.781 320.743 380.626 324.494 385.25 C 328.158 389.786 336.707 389.699 342.029 389.786 C 344.471 389.786 350.578 390.484 351.537 387.431 C 352.148 385.511 349.967 383.679 349.444 382.196 C 351.537 381.76 354.067 384.028 356.161 384.465 C 359.912 385.337 364.012 386.297 367.938 386.646 C 373.172 387.169 379.104 386.122 384.163 386.907 C 381.895 392.752 404.315 397.637 399.517 386.907 C 403.704 387.78 408.153 387.343 412.341 387.692 C 413.824 387.78 425.513 387.78 425.862 386.471 C 425.251 388.303 421.849 388.652 422.896 391.443 C 423.856 394.148 428.217 394.148 430.485 393.973 C 434.324 393.799 438.162 393.886 442.088 393.624 C 445.664 393.45 449.328 393.537 451.073 390.222 C 452.992 386.646 453.428 380.975 453.777 377.05 C 455.086 363.266 450.55 348.611 446.973 335.351 Z  M 398.819 316.77 C 388.438 313.891 393.672 296.88 403.268 300.021 C 405.972 300.893 407.455 303.685 408.066 306.302 C 409.549 312.67 405.972 318.689 398.819 316.77 Z  M 423.768 317.904 C 413.387 315.025 418.621 298.014 428.217 301.067 C 430.922 301.94 432.405 304.731 433.015 307.348 C 434.498 313.804 430.834 319.823 423.768 317.904 Z " fill="url(#_lgradient_65)"/></g></g></svg>