<?xml version="1.0" encoding="UTF-8" standalone="no"?><!-- Generator: Gravit.io --><svg xmlns="http://www.w3.org/2000/svg" xmlns:xlink="http://www.w3.org/1999/xlink" style="isolation:isolate" viewBox="483 253 267 267" width="267pt" height="267pt"><defs><clipPath id="_clipPath_yk5d5rW4YJYj12wMz1RhyTcUIs3znTMY"><rect x="483" y="253" width="267" height="267"/></clipPath></defs><g clip-path="url(#_clipPath_yk5d5rW4YJYj12wMz1RhyTcUIs3znTMY)"><g><path d=" M 483 253 L 750 253 L 750 520 L 483 520 L 483 253 Z " fill="none"/><path d=" M 661 375.375 C 679.468 375.375 694.264 360.468 694.264 342 C 694.264 323.533 679.468 308.625 661 308.625 C 642.533 308.625 627.625 323.533 627.625 342 C 627.625 360.468 642.533 375.375 661 375.375 Z  M 572 375.375 C 590.468 375.375 605.264 360.468 605.264 342 C 605.264 323.533 590.468 308.625 572 308.625 C 553.533 308.625 538.625 323.533 538.625 342 C 538.625 360.468 553.533 375.375 572 375.375 Z  M 572 397.625 C 546.079 397.625 494.125 410.641 494.125 436.563 L 494.125 464.375 L 649.875 464.375 L 649.875 436.563 C 649.875 410.641 597.921 397.625 572 397.625 Z  M 661 397.625 C 657.774 397.625 654.103 397.847 650.209 398.181 C 663.114 407.526 672.125 420.098 672.125 436.563 L 672.125 464.375 L 738.875 464.375 L 738.875 436.563 C 738.875 410.641 686.921 397.625 661 397.625 Z " fill="#ffffff"/></g></g></svg>